<svg xmlns="http://www.w3.org/2000/svg" xmlns:xlink="http://www.w3.org/1999/xlink" width="1080" zoomAndPan="magnify" viewBox="0 0 810 809.999993" height="1080" preserveAspectRatio="xMidYMid meet" version="1.0"><defs><clipPath id="2f49710bbb"><path d="M 186.183594 186.183594 L 624 186.183594 L 624 624 L 186.183594 624 Z M 186.183594 186.183594 " clip-rule="nonzero"/></clipPath></defs><g clip-path="url(#2f49710bbb)"><path fill="#ffffff" d="M 404.996094 186.183594 C 284.339844 186.183594 186.183594 284.339844 186.183594 404.996094 C 186.183594 525.648438 284.339844 623.808594 404.996094 623.808594 C 525.648438 623.808594 623.808594 525.648438 623.808594 404.996094 C 623.808594 284.339844 525.648438 186.183594 404.996094 186.183594 Z M 404.996094 599.496094 C 297.746094 599.496094 210.496094 512.242188 210.496094 404.996094 C 210.496094 297.746094 297.746094 210.496094 404.996094 210.496094 C 512.242188 210.496094 599.496094 297.746094 599.496094 404.996094 C 599.496094 512.242188 512.242188 599.496094 404.996094 599.496094 Z M 404.996094 599.496094 " fill-opacity="1" fill-rule="nonzero"/></g><path fill="#ffffff" d="M 518.980469 364.144531 C 518.980469 365.050781 518.9375 365.953125 518.847656 366.851562 C 518.757812 367.753906 518.628906 368.648438 518.449219 369.535156 C 518.273438 370.421875 518.054688 371.300781 517.792969 372.164062 C 517.527344 373.03125 517.222656 373.882812 516.878906 374.71875 C 516.53125 375.554688 516.144531 376.371094 515.71875 377.171875 C 515.292969 377.96875 514.828125 378.746094 514.324219 379.496094 C 513.820312 380.25 513.28125 380.976562 512.707031 381.675781 C 512.132812 382.375 511.527344 383.042969 510.886719 383.683594 C 510.246094 384.324219 509.578125 384.929688 508.878906 385.503906 C 508.179688 386.078125 507.453125 386.617188 506.699219 387.121094 C 505.945312 387.625 505.171875 388.089844 504.375 388.515625 C 503.574219 388.941406 502.757812 389.328125 501.921875 389.675781 C 501.085938 390.019531 500.234375 390.324219 499.367188 390.589844 C 498.503906 390.851562 497.625 391.070312 496.738281 391.246094 C 495.851562 391.425781 494.957031 391.558594 494.054688 391.644531 C 493.15625 391.734375 492.25 391.777344 491.347656 391.777344 C 490.441406 391.777344 489.539062 391.734375 488.636719 391.644531 C 487.738281 391.558594 486.84375 391.425781 485.957031 391.246094 C 485.066406 391.070312 484.191406 390.851562 483.324219 390.589844 C 482.457031 390.324219 481.609375 390.019531 480.773438 389.675781 C 479.933594 389.328125 479.117188 388.941406 478.320312 388.515625 C 477.523438 388.089844 476.746094 387.625 475.992188 387.121094 C 475.242188 386.617188 474.515625 386.078125 473.816406 385.503906 C 473.117188 384.929688 472.445312 384.324219 471.804688 383.683594 C 471.167969 383.042969 470.558594 382.375 469.984375 381.675781 C 469.410156 380.976562 468.871094 380.25 468.371094 379.496094 C 467.867188 378.746094 467.402344 377.96875 466.976562 377.171875 C 466.546875 376.371094 466.164062 375.554688 465.816406 374.71875 C 465.46875 373.882812 465.164062 373.03125 464.902344 372.164062 C 464.640625 371.300781 464.417969 370.421875 464.242188 369.535156 C 464.066406 368.648438 463.933594 367.753906 463.84375 366.851562 C 463.757812 365.953125 463.710938 365.050781 463.710938 364.144531 C 463.710938 363.238281 463.757812 362.335938 463.84375 361.433594 C 463.933594 360.535156 464.066406 359.640625 464.242188 358.753906 C 464.417969 357.863281 464.640625 356.988281 464.902344 356.121094 C 465.164062 355.257812 465.46875 354.40625 465.816406 353.570312 C 466.164062 352.730469 466.546875 351.914062 466.976562 351.117188 C 467.402344 350.320312 467.867188 349.542969 468.371094 348.789062 C 468.871094 348.039062 469.410156 347.3125 469.984375 346.613281 C 470.558594 345.914062 471.167969 345.242188 471.804688 344.601562 C 472.445312 343.964844 473.117188 343.355469 473.816406 342.78125 C 474.515625 342.207031 475.242188 341.667969 475.992188 341.167969 C 476.746094 340.664062 477.523438 340.199219 478.320312 339.773438 C 479.117188 339.347656 479.933594 338.960938 480.773438 338.613281 C 481.609375 338.265625 482.457031 337.960938 483.324219 337.699219 C 484.191406 337.4375 485.066406 337.21875 485.957031 337.039062 C 486.84375 336.863281 487.738281 336.730469 488.636719 336.640625 C 489.539062 336.554688 490.441406 336.507812 491.347656 336.507812 C 492.25 336.507812 493.15625 336.554688 494.054688 336.640625 C 494.957031 336.730469 495.851562 336.863281 496.738281 337.039062 C 497.625 337.21875 498.503906 337.4375 499.367188 337.699219 C 500.234375 337.960938 501.085938 338.265625 501.921875 338.613281 C 502.757812 338.960938 503.574219 339.347656 504.375 339.773438 C 505.171875 340.199219 505.945312 340.664062 506.699219 341.167969 C 507.453125 341.667969 508.179688 342.207031 508.878906 342.78125 C 509.578125 343.355469 510.246094 343.964844 510.886719 344.601562 C 511.527344 345.242188 512.132812 345.914062 512.707031 346.613281 C 513.28125 347.3125 513.820312 348.039062 514.324219 348.789062 C 514.828125 349.542969 515.292969 350.320312 515.71875 351.117188 C 516.144531 351.914062 516.53125 352.730469 516.878906 353.570312 C 517.222656 354.40625 517.527344 355.257812 517.792969 356.121094 C 518.054688 356.988281 518.273438 357.863281 518.449219 358.753906 C 518.628906 359.640625 518.757812 360.535156 518.847656 361.433594 C 518.9375 362.335938 518.980469 363.238281 518.980469 364.144531 Z M 518.980469 364.144531 " fill-opacity="1" fill-rule="nonzero"/><path fill="#ffffff" d="M 346.277344 364.144531 C 346.277344 365.050781 346.234375 365.953125 346.144531 366.851562 C 346.054688 367.753906 345.921875 368.648438 345.746094 369.535156 C 345.570312 370.421875 345.351562 371.300781 345.085938 372.164062 C 344.824219 373.03125 344.519531 373.882812 344.171875 374.71875 C 343.828125 375.554688 343.441406 376.371094 343.015625 377.171875 C 342.585938 377.96875 342.121094 378.746094 341.621094 379.496094 C 341.117188 380.25 340.578125 380.976562 340.003906 381.675781 C 339.429688 382.375 338.824219 383.042969 338.183594 383.683594 C 337.542969 384.324219 336.875 384.929688 336.171875 385.503906 C 335.472656 386.078125 334.746094 386.617188 333.996094 387.121094 C 333.242188 387.625 332.46875 388.089844 331.667969 388.515625 C 330.871094 388.941406 330.054688 389.328125 329.21875 389.675781 C 328.382812 390.019531 327.53125 390.324219 326.664062 390.589844 C 325.796875 390.851562 324.921875 391.070312 324.035156 391.246094 C 323.144531 391.425781 322.25 391.558594 321.351562 391.644531 C 320.449219 391.734375 319.546875 391.777344 318.640625 391.777344 C 317.738281 391.777344 316.835938 391.734375 315.933594 391.644531 C 315.03125 391.558594 314.140625 391.425781 313.25 391.246094 C 312.363281 391.070312 311.488281 390.851562 310.621094 390.589844 C 309.753906 390.324219 308.902344 390.019531 308.066406 389.675781 C 307.230469 389.328125 306.414062 388.941406 305.617188 388.515625 C 304.816406 388.089844 304.042969 387.625 303.289062 387.121094 C 302.535156 386.617188 301.8125 386.078125 301.109375 385.503906 C 300.410156 384.929688 299.742188 384.324219 299.101562 383.683594 C 298.460938 383.042969 297.855469 382.375 297.28125 381.675781 C 296.707031 380.976562 296.167969 380.25 295.664062 379.496094 C 295.164062 378.746094 294.699219 377.96875 294.269531 377.171875 C 293.84375 376.371094 293.457031 375.554688 293.113281 374.71875 C 292.765625 373.882812 292.460938 373.03125 292.199219 372.164062 C 291.933594 371.300781 291.714844 370.421875 291.539062 369.535156 C 291.363281 368.648438 291.230469 367.753906 291.140625 366.851562 C 291.050781 365.953125 291.007812 365.050781 291.007812 364.144531 C 291.007812 363.238281 291.050781 362.335938 291.140625 361.433594 C 291.230469 360.535156 291.363281 359.640625 291.539062 358.753906 C 291.714844 357.863281 291.933594 356.988281 292.199219 356.121094 C 292.460938 355.257812 292.765625 354.40625 293.113281 353.570312 C 293.457031 352.730469 293.84375 351.914062 294.269531 351.117188 C 294.699219 350.320312 295.164062 349.542969 295.664062 348.789062 C 296.167969 348.039062 296.707031 347.3125 297.28125 346.613281 C 297.855469 345.914062 298.460938 345.242188 299.101562 344.601562 C 299.742188 343.964844 300.410156 343.355469 301.109375 342.78125 C 301.8125 342.207031 302.535156 341.667969 303.289062 341.167969 C 304.042969 340.664062 304.816406 340.199219 305.617188 339.773438 C 306.414062 339.347656 307.230469 338.960938 308.066406 338.613281 C 308.902344 338.265625 309.753906 337.960938 310.621094 337.699219 C 311.488281 337.4375 312.363281 337.21875 313.25 337.039062 C 314.140625 336.863281 315.03125 336.730469 315.933594 336.640625 C 316.835938 336.554688 317.738281 336.507812 318.640625 336.507812 C 319.546875 336.507812 320.449219 336.554688 321.351562 336.640625 C 322.25 336.730469 323.144531 336.863281 324.035156 337.039062 C 324.921875 337.21875 325.796875 337.4375 326.664062 337.699219 C 327.53125 337.960938 328.382812 338.265625 329.21875 338.613281 C 330.054688 338.960938 330.871094 339.347656 331.667969 339.773438 C 332.46875 340.199219 333.242188 340.664062 333.996094 341.167969 C 334.746094 341.667969 335.472656 342.207031 336.171875 342.78125 C 336.875 343.355469 337.542969 343.964844 338.183594 344.601562 C 338.824219 345.242188 339.429688 345.914062 340.003906 346.613281 C 340.578125 347.3125 341.117188 348.039062 341.621094 348.789062 C 342.121094 349.542969 342.585938 350.320312 343.015625 351.117188 C 343.441406 351.914062 343.828125 352.730469 344.171875 353.570312 C 344.519531 354.40625 344.824219 355.257812 345.085938 356.121094 C 345.351562 356.988281 345.570312 357.863281 345.746094 358.753906 C 345.921875 359.640625 346.054688 360.535156 346.144531 361.433594 C 346.234375 362.335938 346.277344 363.238281 346.277344 364.144531 Z M 346.277344 364.144531 " fill-opacity="1" fill-rule="nonzero"/><path fill="#ffffff" d="M 404.996094 523.300781 C 454.882812 523.300781 503.867188 482.859375 503.867188 432.96875 L 306.125 432.96875 C 306.125 482.855469 355.109375 523.300781 404.996094 523.300781 Z M 404.996094 523.300781 " fill-opacity="1" fill-rule="nonzero"/></svg>